#Comment line ignore any data following # character 
#Hierarchical Translation and Rotation (.htr) file 
[Header]	
#Header keywords are followed by a single value 
FileType HTR		#Single word string
DataType HTRS		#Translation followed by rotation and scale data
FileVersion 1		#integer
NumSegments 84		#integer
NumFrames 2		#integer
DataFrameRate 30		#integer, data frame rate in this file
EulerRotationOrder ZYX
CalibrationUnits mm
RotationUnits Degrees
GlobalAxisofGravity Y
BoneLengthAxis Y
ScaleFactor 1.00
[SegmentNames&Hierarchy]
#CHILD	PARENT
MASTER GLOBAL
root MASTER
chest root
L_mid_tent01 root
R_mid_tent01 root
spine01 root
Bip01_Neck chest
L_humerus chest
R_humerus chest
weapon_bone chest
Bip01_Head Bip01_Neck
eye_left_bone Bip01_Head
eye_right_bone Bip01_Head
L_forearm L_humerus
L_front_hand L_forearm
L_weapon_bone L_forearm
L_front_hand01_01 L_front_hand
L_front_hand02_01 L_front_hand
L_front_hand03_01 L_front_hand
L_front_hand01_02 L_front_hand01_01
L_front_hand02_02 L_front_hand02_01
L_front_hand03_02 L_front_hand03_01
R_forearm R_humerus
R_front_hand R_forearm
R_weapon_bone R_forearm
R_front_hand01_01 R_front_hand
R_front_hand02_01 R_front_hand
R_front_hand03_01 R_front_hand
R_front_hand01_02 R_front_hand01_01
R_front_hand02_02 R_front_hand02_01
R_front_hand03_02 R_front_hand03_01
null_rope01_connect L_mid_tent01
Rope1_Seg01 null_rope01_connect
Rope1_Seg02 Rope1_Seg01
Rope1_Seg03 Rope1_Seg02
Rope1_Seg04 Rope1_Seg03
Rope1_Seg05 Rope1_Seg04
Rope1_Seg06 Rope1_Seg05
Rope1_Seg07 Rope1_Seg06
Rope1_Seg09 Rope1_Seg07
L_mid_hand01 Rope1_Seg09
L_mid_hand02 Rope1_Seg09
L_mid_hand03 Rope1_Seg09
null_rope02_connect R_mid_tent01
Rope2_Seg01 null_rope02_connect
Rope2_Seg02 Rope2_Seg01
Rope2_Seg03 Rope2_Seg02
Rope2_Seg04 Rope2_Seg03
Rope2_Seg05 Rope2_Seg04
Rope2_Seg06 Rope2_Seg05
Rope2_Seg07 Rope2_Seg06
Rope2_Seg09 Rope2_Seg07
R_mid_hand01 Rope2_Seg09
R_mid_hand02 Rope2_Seg09
R_mid_hand03 Rope2_Seg09
spine02 spine01
spine03 spine02
pelvis spine03
null_rope03_connect pelvis
null_rope04_connect pelvis
Rope3_Seg01 null_rope03_connect
Rope3_Seg02 Rope3_Seg01
Rope3_Seg03 Rope3_Seg02
Rope3_Seg04 Rope3_Seg03
Rope3_Seg05 Rope3_Seg04
Rope3_Seg06 Rope3_Seg05
Rope3_Seg07 Rope3_Seg06
Rope3_Seg08 Rope3_Seg07
Rope3_Seg09 Rope3_Seg08
R_rear_hand01 Rope3_Seg09
R_rear_hand02 Rope3_Seg09
R_rear_hand03 Rope3_Seg09
Rope4_Seg01 null_rope04_connect
Rope4_Seg02 Rope4_Seg01
Rope4_Seg03 Rope4_Seg02
Rope4_Seg04 Rope4_Seg03
Rope4_Seg05 Rope4_Seg04
Rope4_Seg06 Rope4_Seg05
Rope4_Seg07 Rope4_Seg06
Rope4_Seg08 Rope4_Seg07
Rope4_Seg09 Rope4_Seg08
L_rear_hand01 Rope4_Seg09
L_rear_hand02 Rope4_Seg09
L_rear_hand03 Rope4_Seg09
[BasePosition]
#SegmentName Tx, Ty, Tz, Rx, Ry, Rz, BoneLength
MASTER 0.000000 0.000000 0.000000 -90.000000 0.000000 0.000000 10.000000 
root 0.000000 0.000000 0.000000 0.000000 0.000000 0.000000 10.000000 
chest 0.000000 0.000000 0.000000 0.000000 0.000000 0.000000 10.000000 
L_mid_tent01 0.000000 0.000000 0.000000 0.000000 0.000000 0.000000 10.000000 
R_mid_tent01 0.000000 0.000000 0.000000 0.000000 0.000000 0.000000 10.000000 
spine01 0.000000 0.000000 0.000000 0.000000 0.000000 0.000000 10.000000 
Bip01_Neck 0.000000 0.000000 0.000000 0.000000 0.000000 0.000000 10.000000 
L_humerus 0.000000 0.000000 0.000000 0.000000 0.000000 0.000000 10.000000 
R_humerus 0.000000 0.000000 0.000000 0.000000 0.000000 0.000000 10.000000 
weapon_bone 0.000000 0.000000 0.000000 0.000000 0.000000 0.000000 10.000000 
Bip01_Head 0.000000 0.000000 0.000000 0.000000 0.000000 0.000000 10.000000 
eye_left_bone 0.000000 0.000000 0.000000 0.000000 0.000000 0.000000 10.000000 
eye_right_bone 0.000000 0.000000 0.000000 0.000000 0.000000 0.000000 10.000000 
L_forearm 0.000000 0.000000 0.000000 0.000000 0.000000 0.000000 10.000000 
L_front_hand 0.000000 0.000000 0.000000 0.000000 0.000000 0.000000 10.000000 
L_weapon_bone 0.000000 0.000000 0.000000 0.000000 0.000000 0.000000 10.000000 
L_front_hand01_01 0.000000 0.000000 0.000000 0.000000 0.000000 0.000000 10.000000 
L_front_hand02_01 0.000000 0.000000 0.000000 0.000000 0.000000 0.000000 10.000000 
L_front_hand03_01 0.000000 0.000000 0.000000 0.000000 0.000000 0.000000 10.000000 
L_front_hand01_02 0.000000 0.000000 0.000000 0.000000 0.000000 0.000000 10.000000 
L_front_hand02_02 0.000000 0.000000 0.000000 0.000000 0.000000 0.000000 10.000000 
L_front_hand03_02 0.000000 0.000000 0.000000 0.000000 0.000000 0.000000 10.000000 
R_forearm 0.000000 0.000000 0.000000 0.000000 0.000000 0.000000 10.000000 
R_front_hand 0.000000 0.000000 0.000000 0.000000 0.000000 0.000000 10.000000 
R_weapon_bone 0.000000 0.000000 0.000000 0.000000 0.000000 0.000000 10.000000 
R_front_hand01_01 0.000000 0.000000 0.000000 0.000000 0.000000 0.000000 10.000000 
R_front_hand02_01 0.000000 0.000000 0.000000 0.000000 0.000000 0.000000 10.000000 
R_front_hand03_01 0.000000 0.000000 0.000000 0.000000 0.000000 0.000000 10.000000 
R_front_hand01_02 0.000000 0.000000 0.000000 0.000000 0.000000 0.000000 10.000000 
R_front_hand02_02 0.000000 0.000000 0.000000 0.000000 0.000000 0.000000 10.000000 
R_front_hand03_02 0.000000 0.000000 0.000000 0.000000 0.000000 0.000000 10.000000 
null_rope01_connect 0.000000 0.000000 0.000000 0.000000 0.000000 0.000000 10.000000 
Rope1_Seg01 0.000000 0.000000 0.000000 0.000000 0.000000 0.000000 10.000000 
Rope1_Seg02 0.000000 0.000000 0.000000 0.000000 0.000000 0.000000 10.000000 
Rope1_Seg03 0.000000 0.000000 0.000000 0.000000 0.000000 0.000000 10.000000 
Rope1_Seg04 0.000000 0.000000 0.000000 0.000000 0.000000 0.000000 10.000000 
Rope1_Seg05 0.000000 0.000000 0.000000 0.000000 0.000000 0.000000 10.000000 
Rope1_Seg06 0.000000 0.000000 0.000000 0.000000 0.000000 0.000000 10.000000 
Rope1_Seg07 0.000000 0.000000 0.000000 0.000000 0.000000 0.000000 10.000000 
Rope1_Seg09 0.000000 0.000000 0.000000 0.000000 0.000000 0.000000 10.000000 
L_mid_hand01 0.000000 0.000000 0.000000 0.000000 0.000000 0.000000 10.000000 
L_mid_hand02 0.000000 0.000000 0.000000 0.000000 0.000000 0.000000 10.000000 
L_mid_hand03 0.000000 0.000000 0.000000 0.000000 0.000000 0.000000 10.000000 
null_rope02_connect 0.000000 0.000000 0.000000 0.000000 0.000000 0.000000 10.000000 
Rope2_Seg01 0.000000 0.000000 0.000000 0.000000 0.000000 0.000000 10.000000 
Rope2_Seg02 0.000000 0.000000 0.000000 0.000000 0.000000 0.000000 10.000000 
Rope2_Seg03 0.000000 0.000000 0.000000 0.000000 0.000000 0.000000 10.000000 
Rope2_Seg04 0.000000 0.000000 0.000000 0.000000 0.000000 0.000000 10.000000 
Rope2_Seg05 0.000000 0.000000 0.000000 0.000000 0.000000 0.000000 10.000000 
Rope2_Seg06 0.000000 0.000000 0.000000 0.000000 0.000000 0.000000 10.000000 
Rope2_Seg07 0.000000 0.000000 0.000000 0.000000 0.000000 0.000000 10.000000 
Rope2_Seg09 0.000000 0.000000 0.000000 0.000000 0.000000 0.000000 10.000000 
R_mid_hand01 0.000000 0.000000 0.000000 0.000000 0.000000 0.000000 10.000000 
R_mid_hand02 0.000000 0.000000 0.000000 0.000000 0.000000 0.000000 10.000000 
R_mid_hand03 0.000000 0.000000 0.000000 0.000000 0.000000 0.000000 10.000000 
spine02 0.000000 0.000000 0.000000 0.000000 0.000000 0.000000 10.000000 
spine03 0.000000 0.000000 0.000000 0.000000 0.000000 0.000000 10.000000 
pelvis 0.000000 0.000000 0.000000 0.000000 0.000000 0.000000 10.000000 
null_rope03_connect 0.000000 0.000000 0.000000 0.000000 0.000000 0.000000 10.000000 
null_rope04_connect 0.000000 0.000000 0.000000 0.000000 0.000000 0.000000 10.000000 
Rope3_Seg01 0.000000 0.000000 0.000000 0.000000 0.000000 0.000000 10.000000 
Rope3_Seg02 0.000000 0.000000 0.000000 0.000000 0.000000 0.000000 10.000000 
Rope3_Seg03 0.000000 0.000000 0.000000 0.000000 0.000000 0.000000 10.000000 
Rope3_Seg04 0.000000 0.000000 0.000000 0.000000 0.000000 0.000000 10.000000 
Rope3_Seg05 0.000000 0.000000 0.000000 0.000000 0.000000 0.000000 10.000000 
Rope3_Seg06 0.000000 0.000000 0.000000 0.000000 0.000000 0.000000 10.000000 
Rope3_Seg07 0.000000 0.000000 0.000000 0.000000 0.000000 0.000000 10.000000 
Rope3_Seg08 0.000000 0.000000 0.000000 0.000000 0.000000 0.000000 10.000000 
Rope3_Seg09 0.000000 0.000000 0.000000 0.000000 0.000000 0.000000 10.000000 
R_rear_hand01 0.000000 0.000000 0.000000 0.000000 0.000000 0.000000 10.000000 
R_rear_hand02 0.000000 0.000000 0.000000 0.000000 0.000000 0.000000 10.000000 
R_rear_hand03 0.000000 0.000000 0.000000 0.000000 0.000000 0.000000 10.000000 
Rope4_Seg01 0.000000 0.000000 0.000000 0.000000 0.000000 0.000000 10.000000 
Rope4_Seg02 0.000000 0.000000 0.000000 0.000000 0.000000 0.000000 10.000000 
Rope4_Seg03 0.000000 0.000000 0.000000 0.000000 0.000000 0.000000 10.000000 
Rope4_Seg04 0.000000 0.000000 0.000000 0.000000 0.000000 0.000000 10.000000 
Rope4_Seg05 0.000000 0.000000 0.000000 0.000000 0.000000 0.000000 10.000000 
Rope4_Seg06 0.000000 0.000000 0.000000 0.000000 0.000000 0.000000 10.000000 
Rope4_Seg07 0.000000 0.000000 0.000000 0.000000 0.000000 0.000000 10.000000 
Rope4_Seg08 0.000000 0.000000 0.000000 0.000000 0.000000 0.000000 10.000000 
Rope4_Seg09 0.000000 0.000000 0.000000 0.000000 0.000000 0.000000 10.000000 
L_rear_hand01 0.000000 0.000000 0.000000 0.000000 0.000000 0.000000 10.000000 
L_rear_hand02 0.000000 0.000000 0.000000 0.000000 0.000000 0.000000 10.000000 
L_rear_hand03 0.000000 0.000000 0.000000 0.000000 0.000000 0.000000 10.000000 
#Beginning of Data. Separated by tabs
#Fr	Tx	Ty	Tz	Rx	Ry	Rz	SF
[MASTER]
21 0.000000 0.000000 0.000000 0.001660 0.001660 0.001660 0.000000
22 0.000000 0.000000 0.000000 0.001660 0.001660 0.001660 0.000000
[root]
21 -22.367151 -59.688534 1366.442017 -77.026688 -17.621773 -95.402199 1367.927856
22 -20.557076 -60.655666 1402.311768 -81.544182 -20.583038 -93.498230 1403.773560
[chest]
21 -84.512650 -34.090519 0.000000 -1.812142 -2.112096 -176.380966 91.129311
22 -84.512650 -34.090519 0.000000 -2.286260 -2.124171 -173.647980 91.129311
[L_mid_tent01]
21 27.299152 22.178965 -249.918610 4.129166 29.367680 81.685371 252.381577
22 27.299145 22.178980 -249.918625 3.862609 36.229195 81.347565 252.381607
[R_mid_tent01]
21 23.228794 24.509907 226.238495 162.918396 -34.825447 83.475647 228.744751
22 23.228794 24.509907 226.238495 160.432053 -47.061234 87.899734 228.744751
[spine01]
21 -0.361383 -0.195265 0.000000 0.001878 0.001408 16.263197 0.410763
22 -0.361383 -0.195265 0.000000 0.001845 0.001451 13.654366 0.410763
[Bip01_Neck]
21 165.484543 71.581718 0.000119 176.643677 -1.657967 43.431911 180.302734
22 165.484543 71.581718 0.000119 176.643677 -1.657967 43.431911 180.302734
[L_humerus]
21 -13.983130 -135.272980 -120.471481 167.384918 30.053137 -75.337128 181.680161
22 -13.983130 -135.272980 -120.471481 168.123413 37.155579 -80.774582 181.680161
[R_humerus]
21 -13.983309 -135.273102 125.287651 -176.538635 -26.170046 -86.747086 184.909012
22 -13.983309 -135.273102 125.287651 -175.901321 -33.535957 -87.776840 184.909012
[weapon_bone]
21 235.964890 -300.705902 0.000000 0.000000 -89.951546 -128.212341 382.234833
22 235.964890 -300.705902 0.000000 0.000000 -89.951546 -128.212341 382.234833
[Bip01_Head]
21 213.440521 185.726257 11.640232 4.965422 4.680867 -43.863174 283.172394
22 213.444366 185.715698 11.776962 4.962490 2.797846 -43.898743 283.174011
[eye_left_bone]
21 -24.626970 125.451866 -64.772606 0.000000 -90.000000 -99.840431 143.318359
22 -24.626970 125.451866 -64.772606 0.000000 -90.000000 -99.840431 143.318359
[eye_right_bone]
21 -24.626970 125.451866 64.327362 0.000000 -89.965736 80.156380 143.117676
22 -24.626970 125.451866 64.327362 0.000000 -89.965736 80.156380 143.117676
[L_forearm]
21 322.776093 0.000000 -0.000119 0.000115 -0.002344 -95.600677 322.776093
22 322.776093 0.000000 -0.000119 0.000119 -0.002344 -95.807457 322.776093
[L_front_hand]
21 241.149185 -0.042021 -3.300071 -178.667542 -1.835151 -27.447813 241.171753
22 241.149185 -0.042021 -3.300071 -178.667953 -1.835447 -27.422350 241.171753
[L_weapon_bone]
21 156.183838 0.000000 0.000000 0.000014 0.000007 0.000001 156.183838
22 156.183838 0.000000 0.000000 0.000014 0.000007 0.000001 156.183838
[L_front_hand01_01]
21 86.095154 20.947098 -0.655860 -0.366594 -0.477154 75.385574 88.609184
22 86.095154 20.947098 -0.655860 -0.366594 -0.477154 75.385574 88.609184
[L_front_hand02_01]
21 86.935165 -11.437475 24.513514 154.399796 -59.883835 -61.369587 91.046425
22 86.935165 -11.437475 24.513514 154.399796 -59.883835 -61.369587 91.046425
[L_front_hand03_01]
21 86.637497 -14.123976 -20.424902 -153.913849 58.118122 -62.702866 90.126129
22 86.637497 -14.123976 -20.424902 -153.913849 58.118122 -62.702866 90.126129
[L_front_hand01_02]
21 71.020905 -0.000179 0.000030 0.000334 -0.002323 -106.379684 71.020905
22 71.020905 -0.000179 0.000030 0.000334 -0.002323 -106.379684 71.020905
[L_front_hand02_02]
21 71.020927 -0.000119 0.000060 0.000334 -0.002323 -106.379684 71.020927
22 71.020927 -0.000119 0.000060 0.000334 -0.002323 -106.379684 71.020927
[L_front_hand03_02]
21 71.020905 -0.000060 0.000060 0.000334 -0.002323 -106.379684 71.020905
22 71.020905 -0.000060 0.000060 0.000334 -0.002323 -106.379684 71.020905
[R_forearm]
21 322.776428 -0.000060 0.000030 0.209526 0.012204 -94.129814 322.776428
22 322.776428 -0.000060 0.000030 0.209504 0.012586 -94.339058 322.776428
[R_front_hand]
21 238.847015 -0.006795 2.210259 -2.627543 -10.645033 -26.343817 238.857239
22 238.847015 -0.006795 2.210259 -2.635298 -10.645461 -26.312506 238.857239
[R_weapon_bone]
21 155.664093 0.002503 -0.000030 0.003487 0.001180 -90.988930 155.664078
22 155.664093 0.002503 -0.000030 0.003487 0.001180 -90.988930 155.664078
[R_front_hand01_01]
21 87.624611 14.231146 22.918642 -154.633499 -59.950619 61.746044 91.683487
22 87.624611 14.231146 22.918642 -154.633484 -59.950619 61.746037 91.683487
[R_front_hand02_01]
21 89.356956 14.367283 -19.491137 154.602661 58.302849 63.744389 92.579636
22 89.356956 14.367283 -19.491137 154.602661 58.302849 63.744389 92.579636
[R_front_hand03_01]
21 87.286232 -22.307278 -0.143439 0.162155 -0.423168 -75.767921 90.091743
22 87.286232 -22.307278 -0.143439 0.162155 -0.423168 -75.767906 90.091743
[R_front_hand01_02]
21 71.020905 0.000060 0.000119 0.002323 -0.000334 106.381714 71.020905
22 71.020905 0.000060 0.000119 0.002323 -0.000334 106.381714 71.020905
[R_front_hand02_02]
21 71.020844 -0.000030 -0.000119 0.002323 -0.000334 106.381714 71.020836
22 71.020844 -0.000030 -0.000119 0.002323 -0.000334 106.381714 71.020836
[R_front_hand03_02]
21 71.020905 0.000000 0.000030 0.002323 -0.000334 106.381714 71.020905
22 71.020905 0.000000 0.000030 0.002323 -0.000334 106.381714 71.020905
[null_rope01_connect]
21 328.732483 0.000000 -0.000238 -124.677101 -68.241760 150.150253 328.732483
22 328.732483 0.000000 -0.000238 -135.710953 -59.339634 164.815765 328.732483
[Rope1_Seg01]
21 -0.000038 -0.000114 0.000109 115.547279 13.898499 156.033554 0.000162
22 -0.000038 -0.000114 0.000109 114.864388 8.202466 159.563019 0.000163
[Rope1_Seg02]
21 139.999863 -0.000179 0.000000 0.842608 -6.930047 -0.222804 139.999863
22 139.999863 -0.000179 0.000000 1.949721 -8.632913 -3.782168 139.999863
[Rope1_Seg03]
21 139.999924 0.000060 -0.000060 0.469040 -5.863365 -0.809805 139.999924
22 139.999924 0.000060 -0.000060 1.592027 -5.810637 -5.638077 139.999924
[Rope1_Seg04]
21 139.999924 -0.000060 -0.000119 0.179847 -6.142813 -0.736059 139.999924
22 139.999924 -0.000060 -0.000119 0.834341 -7.738284 -0.877644 139.999924
[Rope1_Seg05]
21 139.999832 0.000119 -0.000060 -0.476860 -7.614252 3.538332 139.999832
22 139.999832 0.000119 -0.000060 -0.511813 -8.104990 6.958737 139.999832
[Rope1_Seg06]
21 139.999954 0.000119 -0.000060 -0.331509 -3.944789 2.344051 139.999954
22 139.999954 0.000119 -0.000060 -0.229685 -3.896394 3.162102 139.999954
[Rope1_Seg07]
21 139.999985 0.000060 0.000000 -0.232403 -2.063975 0.911070 139.999985
22 139.999985 0.000060 0.000000 -0.169918 -2.207215 1.459275 139.999985
[Rope1_Seg09]
21 121.602913 0.000119 -0.000089 -89.793175 -1.359789 0.847147 121.602913
22 121.602913 0.000119 -0.000089 -89.793175 -1.359789 0.847147 121.602913
[L_mid_hand01]
21 103.859421 1.038730 8.195221 130.544373 -67.584534 -38.866943 104.187431
22 103.859421 1.038730 8.195221 130.544373 -67.584534 -38.866943 104.187431
[L_mid_hand02]
21 105.572853 -4.139662 -10.864139 -168.923172 43.409309 -73.498886 106.211075
22 105.572853 -4.139662 -10.864139 -168.923172 43.409309 -73.498886 106.211075
[L_mid_hand03]
21 104.641464 17.579376 -3.913581 -6.012627 17.808174 74.893669 106.179977
22 104.641464 17.579376 -3.913581 -6.012627 17.808174 74.893669 106.179977
[null_rope02_connect]
21 328.732849 0.000179 -0.000119 -138.187790 44.298771 7.883857 328.732849
22 328.732849 0.000179 -0.000119 -135.834412 34.842197 9.655056 328.732849
[Rope2_Seg01]
21 0.000055 0.000109 0.000000 -50.241909 16.403744 36.275272 0.000122
22 0.000062 0.000110 0.000000 -52.680969 30.758976 40.421612 0.000126
[Rope2_Seg02]
21 139.999741 -0.000060 -0.000119 -0.337806 -3.434010 2.738365 139.999756
22 139.999741 -0.000060 -0.000119 -0.376932 -7.596904 4.057237 139.999756
[Rope2_Seg03]
21 140.000107 0.000030 0.000000 -0.452116 -7.151957 4.719025 140.000107
22 140.000107 0.000030 0.000000 -1.206771 -18.322790 7.048873 140.000107
[Rope2_Seg04]
21 139.999802 0.000000 -0.000060 -3.434963 -29.990753 7.210135 139.999802
22 139.999802 0.000000 -0.000060 -5.022254 -27.826801 6.981136 139.999802
[Rope2_Seg05]
21 139.999985 -0.000060 0.000119 54.985672 60.824066 86.858948 139.999985
22 139.999985 -0.000060 0.000119 89.974854 48.737583 130.562637 139.999985
[Rope2_Seg06]
21 139.999893 -0.000030 -0.000119 -24.107161 33.329563 18.664965 139.999893
22 139.999893 -0.000030 -0.000119 -28.656725 27.983442 17.190136 139.999893
[Rope2_Seg07]
21 139.999893 0.000060 -0.000060 -4.358359 1.836042 3.441806 139.999893
22 139.999893 0.000060 -0.000060 -2.922270 0.793117 2.123783 139.999893
[Rope2_Seg09]
21 121.338966 0.000089 -0.000060 33.793236 -1.359788 -0.847141 121.338966
22 121.338966 0.000089 -0.000060 33.793236 -1.359788 -0.847141 121.338966
[R_mid_hand01]
21 104.680779 11.144459 -10.335981 -16.212063 45.237247 70.462852 105.778534
22 104.680779 11.144459 -10.335981 -16.212063 45.237240 70.462845 105.778534
[R_mid_hand02]
21 104.070427 2.443552 8.231699 49.067368 -67.749771 39.286453 104.424065
22 104.070427 2.443552 8.231699 49.067368 -67.749771 39.286453 104.424065
[R_mid_hand03]
21 106.028137 -11.221827 -5.996406 -177.101105 15.551026 -76.585571 106.788818
22 106.028137 -11.221827 -5.996406 -177.101105 15.551026 -76.585571 106.788818
[spine02]
21 129.756927 0.001550 0.000119 -1.045523 -3.923276 7.113793 129.756927
22 129.756927 0.001550 0.000119 -1.023899 -3.926965 6.770990 129.756927
[spine03]
21 78.613945 0.082345 -4.898946 1.026160 4.155942 4.008907 78.766487
22 78.613960 0.082266 -4.898952 1.040681 4.146420 4.212378 78.766495
[pelvis]
21 169.435242 0.051022 0.000000 0.025157 -0.189678 -11.153687 169.435257
22 169.435242 0.051022 0.000000 0.019518 -0.190233 -10.721431 169.435257
[null_rope03_connect]
21 -1.257226 -2.466202 137.391083 -6.938569 -77.878326 98.996582 137.418976
22 -1.257226 -2.466202 137.391083 -4.495916 -82.350883 101.481476 137.418976
[null_rope04_connect]
21 -1.259640 -2.480268 -137.844437 -6.938569 -77.878326 98.996582 137.872513
22 -1.259640 -2.480268 -137.844437 -4.495916 -82.350883 101.481476 137.872513
[Rope3_Seg01]
21 -0.000020 0.000014 0.000095 -134.564209 -26.141327 -71.910469 0.000098
22 -0.000021 0.000017 0.000084 -131.532730 -25.397480 -79.168587 0.000088
[Rope3_Seg02]
21 139.999924 -0.000119 0.000060 -17.051422 12.601562 -35.012993 139.999924
22 139.999924 -0.000119 0.000060 -20.287611 16.186575 -44.848866 139.999924
[Rope3_Seg03]
21 139.999924 -0.000119 0.000119 -39.799961 26.321266 -38.754353 139.999924
22 139.999924 -0.000119 0.000119 -39.520443 26.743444 -40.358303 139.999924
[Rope3_Seg04]
21 139.999924 0.000119 0.000000 -12.040328 15.899381 -8.337085 139.999924
22 139.999924 0.000119 0.000000 -10.332558 14.290912 -7.360264 139.999924
[Rope3_Seg05]
21 139.999924 -0.000238 0.000060 -18.148371 27.235756 -14.670012 139.999924
22 139.999924 -0.000238 0.000060 -15.119492 26.651793 -11.112195 139.999924
[Rope3_Seg06]
21 139.999893 -0.000119 -0.000060 -8.995837 28.868782 -6.985300 139.999893
22 139.999893 -0.000119 -0.000060 -6.612432 27.664978 -4.638278 139.999893
[Rope3_Seg07]
21 139.999771 0.000060 -0.000119 -0.594428 10.830819 -0.680648 139.999771
22 139.999771 0.000060 -0.000119 -0.130355 10.918005 -0.497675 139.999771
[Rope3_Seg08]
21 139.999985 -0.000060 0.000000 0.355242 5.246828 -0.279119 139.999985
22 139.999985 -0.000060 0.000000 0.579583 5.420490 -0.238271 139.999985
[Rope3_Seg09]
21 90.185997 -0.000179 -0.000060 89.793228 -1.359877 -0.847183 90.185997
22 90.185997 -0.000179 -0.000060 89.793228 -1.359877 -0.847183 90.185997
[R_rear_hand01]
21 103.366196 -6.073594 -10.757982 -177.714203 24.565960 -73.910950 104.101845
22 103.366196 -6.073594 -10.757982 -177.714203 24.565960 -73.910950 104.101845
[R_rear_hand02]
21 100.509819 12.039542 -7.992327 -12.874829 36.868488 72.167213 101.543350
22 100.509819 12.039542 -7.992327 -12.874829 36.868488 72.167213 101.543350
[R_rear_hand03]
21 101.539970 5.215704 5.435467 71.484581 -71.816628 21.513813 101.819031
22 101.539970 5.215704 5.435467 71.484581 -71.816628 21.513813 101.819031
[Rope4_Seg01]
21 0.000012 -0.000038 -0.000295 67.962463 -35.231590 -131.293182 0.000297
22 0.000012 -0.000038 -0.000279 71.508087 -40.355000 -131.693481 0.000282
[Rope4_Seg02]
21 139.999985 0.000060 0.000119 -18.473366 19.491154 -23.944286 139.999985
22 139.999985 0.000060 0.000119 -20.610798 26.380131 -26.926760 139.999985
[Rope4_Seg03]
21 139.999924 0.000000 -0.000238 -6.870611 37.722008 -13.488912 139.999924
22 139.999924 0.000000 -0.000238 -0.487601 45.436596 -7.869952 139.999924
[Rope4_Seg04]
21 139.999985 0.000000 0.000119 1.722714 -9.174885 -42.541332 139.999985
22 139.999985 0.000000 0.000119 7.958322 -7.446000 -28.890465 139.999985
[Rope4_Seg05]
21 139.999802 -0.000060 -0.000119 -3.749591 -5.214005 -14.325403 139.999802
22 139.999802 -0.000060 -0.000119 2.058449 -19.504564 -25.549229 139.999802
[Rope4_Seg06]
21 139.999924 0.000000 0.000060 -1.923884 -0.508438 -4.432831 139.999924
22 139.999924 0.000000 0.000060 -2.145681 -3.797601 -7.004210 139.999924
[Rope4_Seg07]
21 139.999802 0.000000 0.000000 -1.200459 -0.214248 -2.662223 139.999802
22 139.999802 0.000000 0.000000 -1.552266 -1.877967 -3.936081 139.999802
[Rope4_Seg08]
21 139.999924 0.000000 0.000119 -2.267505 -0.093330 -1.549796 139.999924
22 139.999924 0.000000 0.000119 -2.541793 -0.987868 -2.227494 139.999924
[Rope4_Seg09]
21 90.185791 0.000060 0.000060 -135.617828 2.228885 0.850567 90.185791
22 90.185791 0.000060 0.000060 -135.617828 2.228885 0.850567 90.185791
[L_rear_hand01]
21 101.696655 -8.392275 -7.654577 -12.874829 -36.868488 107.832764 102.329041
22 101.696655 -8.392275 -7.654577 -12.874829 -36.868488 107.832764 102.329041
[L_rear_hand02]
21 102.726799 -1.568258 5.773216 71.484581 71.816628 158.486160 102.900848
22 102.726799 -1.568258 5.773216 71.484581 71.816628 158.486160 102.900848
[L_rear_hand03]
21 104.552910 9.721220 -10.420293 -177.714203 -24.565960 -106.089035 105.519653
22 104.552910 9.721220 -10.420293 -177.714203 -24.565960 -106.089035 105.519653
